SOURCE: DVD5
 
http://www.imdb.com/title/tt0108633/


-SAMPLE: Yes

-SUBTITLE: English

-LANGUAGE: English


DIRECTOR: Danny Cannon


CAST:
-----------
Harvey Keitel, Iain Glen, Keith Allen, Craig Kelly, Thandie Newton, Viggo Mortensen, John Wood


PLOT:
----------
Harvey Keitel plays John Harris, an American drug enforcement officer who is asked by London police to help them in cracking an organized drug ring. The syndicate is run by a ruthless young American who turns disaffected young Britons into hardened criminals. The gang has gunned down a well-known mobster and supplies cheap heroin to dance clubs all over London. Harris hooks up with British police officer Edward Foster (Iain Glen). They discover that the drug ring is just a small part of a huge international mob -- and that a young man whose own father has worked for the American-run mob all his life is the key to cracking the ring.


General
-----------
Format : AVI
Format/Info : Audio Video Interleave
File size : 901 MiB
Duration : 1h 39mn
Overall bit rate : 1269 Kbps
Writing library : VirtualDub build 32842


Video
---------
Format : MPEG-4 Visual
Format profile : Advanced Simple@L5
Format settings, BVOP : 1
Format settings, QPel : No
Format settings, GMC : No warppoints
Format settings, Matrix : Custom
Codec ID : XVID
Codec ID/Hint : XviD
Duration : 1h 39mn
Bit rate : 1131 Kbps
Width : 720 pixels
Height : 304 pixels
Display aspect ratio : 2.35:1
Frame rate : 25.000 fps
Color space : YUV
Chroma subsampling : 4:2:0
Bit depth : 8 bits
Scan type : Progressive
Compression mode : Lossy
Bits/(Pixel*Frame) : 0.207
Stream size : 804 MiB (89%)
Writing library : XviD 1.2.1


Audio
----------
Format : MPEG Audio
Format version : Version 1
Format profile : Layer 3
Mode : Joint stereo
Mode extension : MS Stereo
Codec ID : 55
Codec ID/Hint : MP3
Duration : 1h 39mn
Bit rate mode : Constant
Bit rate : 128 Kbps
Channel(s) : 2 channels
Sampling rate : 48.0 KHz
Compression mode : Lossy
Stream size : 90.9 MiB (10%)
Alignment : Split accross interleaves
Interleave, duration : 40 ms (1.00 video frame)
Interleave, preload duration : 500 ms
